<svg version="1.0" preserveAspectRatio="xMidYMid meet" viewBox="14.25 122.249997066 347.25 131.24999685" zoomAndPan="magnify" xmlns:xlink="http://www.w3.org/1999/xlink" xmlns="http://www.w3.org/2000/svg" style="max-height: 500px" width="347.25" height="131.24999685"><defs><g/></defs><g fill-opacity="1" fill="#bfdbfe"><g transform="translate(41.371446, 201.986792)"><g><path d="M 0.421875 -35.34375 L 0.421875 -44.1875 L 31.5 -44.1875 L 31.5 -35.34375 L 21 -35.34375 L 21 0 L 10.921875 0 L 10.921875 -35.34375 Z M 0.421875 -35.34375"/></g></g></g><g fill-opacity="1" fill="#bfdbfe"><g transform="translate(68.736706, 201.986792)"><g><path d="M 5.078125 -3.40625 C 2.515625 -6.207031 1.234375 -9.640625 1.234375 -13.703125 C 1.234375 -17.773438 2.515625 -21.222656 5.078125 -24.046875 C 7.648438 -26.867188 10.921875 -28.28125 14.890625 -28.28125 C 18.535156 -28.28125 21.535156 -27.140625 23.890625 -24.859375 L 23.890625 -27.484375 L 33.375 -27.484375 L 33.375 0 L 24 0 L 24 -3.109375 L 23.890625 -3.109375 C 21.535156 -0.503906 18.535156 0.796875 14.890625 0.796875 C 10.921875 0.796875 7.648438 -0.601562 5.078125 -3.40625 Z M 13.140625 -18.359375 C 11.910156 -17.148438 11.296875 -15.597656 11.296875 -13.703125 C 11.296875 -11.816406 11.882812 -10.273438 13.0625 -9.078125 C 14.25 -7.878906 15.804688 -7.28125 17.734375 -7.28125 C 19.585938 -7.28125 21.113281 -7.882812 22.3125 -9.09375 C 23.507812 -10.3125 24.109375 -11.851562 24.109375 -13.71875 C 24.109375 -15.601562 23.488281 -17.148438 22.25 -18.359375 C 21.019531 -19.578125 19.515625 -20.1875 17.734375 -20.1875 C 15.910156 -20.1875 14.378906 -19.578125 13.140625 -18.359375 Z M 13.140625 -18.359375"/></g></g></g><g fill-opacity="1" fill="#bfdbfe"><g transform="translate(100.761232, 201.986792)"><g><path d="M 15.15625 -28.28125 C 16.726562 -28.28125 18.28125 -28.097656 19.8125 -27.734375 C 21.351562 -27.378906 22.5 -27.023438 23.25 -26.671875 L 24.375 -26.140625 L 21.265625 -19.921875 C 19.117188 -21.066406 17.082031 -21.640625 15.15625 -21.640625 C 14.082031 -21.640625 13.320312 -21.519531 12.875 -21.28125 C 12.4375 -21.050781 12.21875 -20.617188 12.21875 -19.984375 C 12.21875 -19.835938 12.234375 -19.691406 12.265625 -19.546875 C 12.296875 -19.410156 12.363281 -19.28125 12.46875 -19.15625 C 12.582031 -19.03125 12.679688 -18.921875 12.765625 -18.828125 C 12.859375 -18.734375 13.007812 -18.632812 13.21875 -18.53125 C 13.4375 -18.425781 13.609375 -18.347656 13.734375 -18.296875 C 13.859375 -18.242188 14.0625 -18.160156 14.34375 -18.046875 C 14.632812 -17.941406 14.851562 -17.863281 15 -17.8125 C 15.144531 -17.757812 15.382812 -17.675781 15.71875 -17.5625 C 16.0625 -17.457031 16.320312 -17.390625 16.5 -17.359375 C 17.601562 -17.035156 18.566406 -16.675781 19.390625 -16.28125 C 20.210938 -15.882812 21.078125 -15.347656 21.984375 -14.671875 C 22.898438 -13.992188 23.609375 -13.132812 24.109375 -12.09375 C 24.609375 -11.0625 24.859375 -9.882812 24.859375 -8.5625 C 24.859375 -2.320312 20.519531 0.796875 11.84375 0.796875 C 9.875 0.796875 8.003906 0.492188 6.234375 -0.109375 C 4.472656 -0.710938 3.195312 -1.316406 2.40625 -1.921875 L 1.234375 -2.890625 L 5.09375 -9.375 C 5.375 -9.125 5.742188 -8.828125 6.203125 -8.484375 C 6.671875 -8.148438 7.507812 -7.6875 8.71875 -7.09375 C 9.9375 -6.507812 10.992188 -6.21875 11.890625 -6.21875 C 13.859375 -6.21875 14.84375 -6.875 14.84375 -8.1875 C 14.84375 -8.800781 14.59375 -9.273438 14.09375 -9.609375 C 13.59375 -9.953125 12.742188 -10.335938 11.546875 -10.765625 C 10.347656 -11.191406 9.410156 -11.582031 8.734375 -11.9375 C 7.015625 -12.832031 5.65625 -13.84375 4.65625 -14.96875 C 3.65625 -16.09375 3.15625 -17.582031 3.15625 -19.4375 C 3.15625 -22.226562 4.234375 -24.398438 6.390625 -25.953125 C 8.554688 -27.503906 11.476562 -28.28125 15.15625 -28.28125 Z M 15.15625 -28.28125"/></g></g></g><g fill-opacity="1" fill="#bfdbfe"><g transform="translate(122.556789, 201.986792)"><g><path d="M 34.59375 -27.484375 L 21.53125 -14.359375 L 35.890625 0 L 23.671875 0 L 12.6875 -10.984375 L 12.6875 0 L 3.21875 0 L 3.21875 -46.0625 L 12.6875 -46.0625 L 12.6875 -17.890625 L 22.28125 -27.484375 Z M 34.59375 -27.484375"/></g></g></g><g fill-opacity="1" fill="#bfdbfe"><g transform="translate(152.599783, 201.986792)"><g/></g></g><g fill-opacity="1" fill="#bfdbfe"><g transform="translate(162.666852, 201.986792)"><g><path d="M 39.75 0 L 37.65625 -26.1875 L 37.390625 -26.1875 L 28.328125 -0.265625 L 22.328125 -0.265625 L 13.28125 -26.1875 L 13.015625 -26.1875 L 10.921875 0 L 0.859375 0 L 4.828125 -44.1875 L 15.53125 -44.1875 L 25.328125 -18.6875 L 35.140625 -44.1875 L 45.84375 -44.1875 L 49.8125 0 Z M 39.75 0"/></g></g></g><g fill-opacity="1" fill="#bfdbfe"><g transform="translate(208.776274, 201.986792)"><g><path d="M 5.078125 -3.40625 C 2.515625 -6.207031 1.234375 -9.640625 1.234375 -13.703125 C 1.234375 -17.773438 2.515625 -21.222656 5.078125 -24.046875 C 7.648438 -26.867188 10.921875 -28.28125 14.890625 -28.28125 C 18.535156 -28.28125 21.535156 -27.140625 23.890625 -24.859375 L 23.890625 -27.484375 L 33.375 -27.484375 L 33.375 0 L 24 0 L 24 -3.109375 L 23.890625 -3.109375 C 21.535156 -0.503906 18.535156 0.796875 14.890625 0.796875 C 10.921875 0.796875 7.648438 -0.601562 5.078125 -3.40625 Z M 13.140625 -18.359375 C 11.910156 -17.148438 11.296875 -15.597656 11.296875 -13.703125 C 11.296875 -11.816406 11.882812 -10.273438 13.0625 -9.078125 C 14.25 -7.878906 15.804688 -7.28125 17.734375 -7.28125 C 19.585938 -7.28125 21.113281 -7.882812 22.3125 -9.09375 C 23.507812 -10.3125 24.109375 -11.851562 24.109375 -13.71875 C 24.109375 -15.601562 23.488281 -17.148438 22.25 -18.359375 C 21.019531 -19.578125 19.515625 -20.1875 17.734375 -20.1875 C 15.910156 -20.1875 14.378906 -19.578125 13.140625 -18.359375 Z M 13.140625 -18.359375"/></g></g></g><g fill-opacity="1" fill="#bfdbfe"><g transform="translate(240.8008, 201.986792)"><g><path d="M 15.15625 -28.28125 C 16.726562 -28.28125 18.28125 -28.097656 19.8125 -27.734375 C 21.351562 -27.378906 22.5 -27.023438 23.25 -26.671875 L 24.375 -26.140625 L 21.265625 -19.921875 C 19.117188 -21.066406 17.082031 -21.640625 15.15625 -21.640625 C 14.082031 -21.640625 13.320312 -21.519531 12.875 -21.28125 C 12.4375 -21.050781 12.21875 -20.617188 12.21875 -19.984375 C 12.21875 -19.835938 12.234375 -19.691406 12.265625 -19.546875 C 12.296875 -19.410156 12.363281 -19.28125 12.46875 -19.15625 C 12.582031 -19.03125 12.679688 -18.921875 12.765625 -18.828125 C 12.859375 -18.734375 13.007812 -18.632812 13.21875 -18.53125 C 13.4375 -18.425781 13.609375 -18.347656 13.734375 -18.296875 C 13.859375 -18.242188 14.0625 -18.160156 14.34375 -18.046875 C 14.632812 -17.941406 14.851562 -17.863281 15 -17.8125 C 15.144531 -17.757812 15.382812 -17.675781 15.71875 -17.5625 C 16.0625 -17.457031 16.320312 -17.390625 16.5 -17.359375 C 17.601562 -17.035156 18.566406 -16.675781 19.390625 -16.28125 C 20.210938 -15.882812 21.078125 -15.347656 21.984375 -14.671875 C 22.898438 -13.992188 23.609375 -13.132812 24.109375 -12.09375 C 24.609375 -11.0625 24.859375 -9.882812 24.859375 -8.5625 C 24.859375 -2.320312 20.519531 0.796875 11.84375 0.796875 C 9.875 0.796875 8.003906 0.492188 6.234375 -0.109375 C 4.472656 -0.710938 3.195312 -1.316406 2.40625 -1.921875 L 1.234375 -2.890625 L 5.09375 -9.375 C 5.375 -9.125 5.742188 -8.828125 6.203125 -8.484375 C 6.671875 -8.148438 7.507812 -7.6875 8.71875 -7.09375 C 9.9375 -6.507812 10.992188 -6.21875 11.890625 -6.21875 C 13.859375 -6.21875 14.84375 -6.875 14.84375 -8.1875 C 14.84375 -8.800781 14.59375 -9.273438 14.09375 -9.609375 C 13.59375 -9.953125 12.742188 -10.335938 11.546875 -10.765625 C 10.347656 -11.191406 9.410156 -11.582031 8.734375 -11.9375 C 7.015625 -12.832031 5.65625 -13.84375 4.65625 -14.96875 C 3.65625 -16.09375 3.15625 -17.582031 3.15625 -19.4375 C 3.15625 -22.226562 4.234375 -24.398438 6.390625 -25.953125 C 8.554688 -27.503906 11.476562 -28.28125 15.15625 -28.28125 Z M 15.15625 -28.28125"/></g></g></g><g fill-opacity="1" fill="#bfdbfe"><g transform="translate(262.596346, 201.986792)"><g><path d="M 4.828125 -27.484375 L 4.828125 -37.703125 L 14.296875 -37.703125 L 14.296875 -27.484375 L 20.078125 -27.484375 L 20.078125 -20.25 L 14.296875 -20.25 L 14.296875 -11.515625 C 14.296875 -8.984375 15.007812 -7.71875 16.4375 -7.71875 C 16.800781 -7.71875 17.175781 -7.785156 17.5625 -7.921875 C 17.957031 -8.066406 18.265625 -8.210938 18.484375 -8.359375 L 18.796875 -8.5625 L 21.15625 -0.90625 C 19.125 0.226562 16.800781 0.796875 14.1875 0.796875 C 12.40625 0.796875 10.867188 0.484375 9.578125 -0.140625 C 8.296875 -0.765625 7.320312 -1.601562 6.65625 -2.65625 C 6 -3.707031 5.53125 -4.8125 5.25 -5.96875 C 4.96875 -7.132812 4.828125 -8.375 4.828125 -9.6875 L 4.828125 -20.25 L 0.859375 -20.25 L 0.859375 -27.484375 Z M 4.828125 -27.484375"/></g></g></g><g fill-opacity="1" fill="#bfdbfe"><g transform="translate(279.197098, 201.986792)"><g><path d="M 31.015625 -12.421875 L 11.09375 -12.421875 C 11.09375 -10.492188 11.71875 -9.066406 12.96875 -8.140625 C 14.21875 -7.210938 15.570312 -6.75 17.03125 -6.75 C 18.570312 -6.75 19.785156 -6.953125 20.671875 -7.359375 C 21.566406 -7.773438 22.585938 -8.585938 23.734375 -9.796875 L 30.578125 -6.375 C 27.722656 -1.59375 22.976562 0.796875 16.34375 0.796875 C 12.195312 0.796875 8.640625 -0.617188 5.671875 -3.453125 C 2.710938 -6.296875 1.234375 -9.71875 1.234375 -13.71875 C 1.234375 -17.71875 2.710938 -21.144531 5.671875 -24 C 8.640625 -26.851562 12.195312 -28.28125 16.34375 -28.28125 C 20.695312 -28.28125 24.238281 -27.019531 26.96875 -24.5 C 29.695312 -21.988281 31.0625 -18.394531 31.0625 -13.71875 C 31.0625 -13.070312 31.046875 -12.640625 31.015625 -12.421875 Z M 11.359375 -17.671875 L 21.796875 -17.671875 C 21.585938 -19.097656 21.023438 -20.195312 20.109375 -20.96875 C 19.203125 -21.738281 18.035156 -22.125 16.609375 -22.125 C 15.035156 -22.125 13.785156 -21.710938 12.859375 -20.890625 C 11.929688 -20.066406 11.429688 -18.992188 11.359375 -17.671875 Z M 11.359375 -17.671875"/></g></g></g><g fill-opacity="1" fill="#bfdbfe"><g transform="translate(306.937254, 201.986792)"><g><path d="M 3.21875 0 L 3.21875 -27.484375 L 12.6875 -27.484375 L 12.6875 -23.515625 L 12.796875 -23.515625 C 12.867188 -23.660156 12.984375 -23.835938 13.140625 -24.046875 C 13.304688 -24.265625 13.65625 -24.640625 14.1875 -25.171875 C 14.726562 -25.710938 15.300781 -26.195312 15.90625 -26.625 C 16.507812 -27.050781 17.296875 -27.429688 18.265625 -27.765625 C 19.234375 -28.109375 20.210938 -28.28125 21.203125 -28.28125 C 22.242188 -28.28125 23.265625 -28.132812 24.265625 -27.84375 C 25.265625 -27.5625 25.992188 -27.28125 26.453125 -27 L 27.203125 -26.5625 L 23.25 -18.53125 C 22.070312 -19.53125 20.425781 -20.03125 18.3125 -20.03125 C 17.175781 -20.03125 16.195312 -19.78125 15.375 -19.28125 C 14.550781 -18.78125 13.96875 -18.171875 13.625 -17.453125 C 13.289062 -16.742188 13.050781 -16.140625 12.90625 -15.640625 C 12.757812 -15.140625 12.6875 -14.75 12.6875 -14.46875 L 12.6875 0 Z M 3.21875 0"/></g></g></g><path stroke-miterlimit="4" stroke-opacity="1" stroke-width="10" stroke="#93c5fd" d="M 0.000392518 5.000184 L 84.43269 5.000184" stroke-linejoin="miter" fill="none" transform="matrix(0.75, 0, 0, 0.75, 15.663768, 244.097518)" stroke-linecap="butt"/><path stroke-miterlimit="4" stroke-opacity="1" stroke-width="10" stroke="#93c5fd" d="M 0.00010795 4.999688 L 82.463655 4.999688" stroke-linejoin="miter" fill="none" transform="matrix(0, 0.75, -0.75, 0, 23.159922, 187.503825)" stroke-linecap="butt"/><path stroke-miterlimit="4" stroke-opacity="1" stroke-width="10" stroke="#93c5fd" d="M -0.000441728 4.997588 L 84.431855 4.997588" stroke-linejoin="miter" fill="none" transform="matrix(-0.75, 0, 0, -0.75, 359.327794, 131.037253)" stroke-linecap="butt"/><path stroke-miterlimit="4" stroke-opacity="1" stroke-width="10" stroke="#93c5fd" d="M -0.00249176 5.000495 L 82.461055 5.000495" stroke-linejoin="miter" fill="none" transform="matrix(0, -0.75, 0.75, 0, 351.831661, 187.630944)" stroke-linecap="butt"/></svg>